<?xml version="1.0" encoding="UTF-8" standalone="no"?>
<!-- Created with Inkscape (http://www.inkscape.org/) -->

<svg
   xmlns:dc="http://purl.org/dc/elements/1.1/"
   xmlns:cc="http://creativecommons.org/ns#"
   xmlns:rdf="http://www.w3.org/1999/02/22-rdf-syntax-ns#"
   xmlns:svg="http://www.w3.org/2000/svg"
   xmlns="http://www.w3.org/2000/svg"
   xmlns:xlink="http://www.w3.org/1999/xlink"
   xmlns:sodipodi="http://sodipodi.sourceforge.net/DTD/sodipodi-0.dtd"
   xmlns:inkscape="http://www.inkscape.org/namespaces/inkscape"
   width="210mm"
   height="297mm"
   viewBox="0 0 744.09448819 1052.3622047"
   id="svg2"
   version="1.1"
   inkscape:version="0.91 r13725"
   sodipodi:docname="logo.svg">
  <defs
     id="defs4" />
  <sodipodi:namedview
     id="base"
     pagecolor="#ffffff"
     bordercolor="#666666"
     borderopacity="1.0"
     inkscape:pageopacity="0.0"
     inkscape:pageshadow="2"
     inkscape:zoom="1.4142136"
     inkscape:cx="383.54127"
     inkscape:cy="699.87886"
     inkscape:document-units="px"
     inkscape:current-layer="layer1"
     showgrid="false"
     inkscape:window-width="861"
     inkscape:window-height="792"
     inkscape:window-x="666"
     inkscape:window-y="0"
     inkscape:window-maximized="0" />
  <metadata
     id="metadata7">
    <rdf:RDF>
      <cc:Work
         rdf:about="">
        <dc:format>image/svg+xml</dc:format>
        <dc:type
           rdf:resource="http://purl.org/dc/dcmitype/StillImage" />
        <dc:title></dc:title>
      </cc:Work>
    </rdf:RDF>
  </metadata>
  <g
     inkscape:label="Layer 1"
     inkscape:groupmode="layer"
     id="layer1">
    <path
       style="fill:none;fill-rule:evenodd;stroke:#000000;stroke-width:0.70307302px;stroke-linecap:butt;stroke-linejoin:miter;stroke-opacity:1"
       d="M 351.65982,262.34652 247.36065,433.21508 Z"
       id="path3340"
       inkscape:connector-curvature="0" />
    <path
       style="fill:none;fill-rule:evenodd;stroke:#000000;stroke-width:0.70331639px;stroke-linecap:butt;stroke-linejoin:miter;stroke-opacity:1"
       d="M 422.68042,266.74823 318.30804,437.61514 Z"
       id="path3340-6"
       inkscape:connector-curvature="0"
       inkscape:transform-center-x="-28.595177"
       inkscape:transform-center-y="66.369795" />
    <path
       style="fill:none;fill-rule:evenodd;stroke:#000000;stroke-width:0.9620406px;stroke-linecap:butt;stroke-linejoin:miter;stroke-opacity:1"
       d="m 351.19684,262.51166 30.92869,46.9019"
       id="path3357"
       inkscape:connector-curvature="0" />
    <path
       style="fill:none;fill-rule:evenodd;stroke:#000000;stroke-width:0.95216775px;stroke-linecap:butt;stroke-linejoin:miter;stroke-opacity:1"
       d="m 335.35122,288.57392 30.93517,45.93461"
       id="path3357-0"
       inkscape:connector-curvature="0" />
    <path
       style="fill:none;fill-rule:evenodd;stroke:#000000;stroke-width:0.92466331px;stroke-linecap:butt;stroke-linejoin:miter;stroke-opacity:1"
       d="M 382.34786,308.90463 366.0684,334.28381 Z"
       id="path3376"
       inkscape:connector-curvature="0"
       sodipodi:nodetypes="ccc" />
    <path
       style="opacity:1;fill:#000000;fill-opacity:1;stroke-width:20;stroke-linecap:butt;stroke-miterlimit:4;stroke-dasharray:none"
       d="m 351.21176,311.10943 c -8.19021,-12.16113 -14.88823,-22.16423 -14.88449,-22.22911 0.0148,-0.25592 14.96319,-24.91022 15.0793,-24.87014 0.31879,0.11001 29.9678,45.34147 29.85057,45.53895 -0.10209,0.17197 -15.05004,23.5246 -15.13267,23.64122 -0.0118,0.0166 -6.7225,-9.91979 -14.91271,-22.08092 z"
       id="path3380"
       inkscape:connector-curvature="0" />
    <path
       style="opacity:1;fill:#000000;fill-opacity:1;stroke-width:20;stroke-linecap:butt;stroke-miterlimit:4;stroke-dasharray:none"
       d=""
       id="path3382"
       inkscape:connector-curvature="0" />
    <path
       style="opacity:1;fill:#000000;fill-opacity:1;stroke-width:20;stroke-linecap:butt;stroke-miterlimit:4;stroke-dasharray:none"
       d="m 359.14375,322.71388 c -3.82452,-5.67 -10.50419,-15.60136 -14.8437,-22.06968 l -7.89003,-11.76058 0.9121,-1.54807 c 3.82244,-6.4877 13.94756,-23.06379 14.0887,-23.06497 0.16768,-0.001 10.3548,15.38312 21.04679,31.78476 7.95158,12.19781 8.74226,13.45417 8.59223,13.65279 -0.0775,0.10257 -3.42176,5.32935 -7.43172,11.61506 -4.00996,6.28572 -7.34256,11.4896 -7.40577,11.56419 -0.0632,0.0746 -3.24408,-4.50349 -7.0686,-10.1735 z"
       id="path3384"
       inkscape:connector-curvature="0" />
    <path
       style="opacity:1;fill:#000000;fill-opacity:1;stroke-width:20;stroke-linecap:butt;stroke-miterlimit:4;stroke-dasharray:none"
       d="m 364.56131,330.74759 c -0.8415,-1.25485 -3.99991,-5.93779 -7.01871,-10.40654 -11.13022,-16.47617 -21.03696,-31.31349 -21.03376,-31.50225 0.006,-0.3445 14.6814,-24.56918 14.88425,-24.56918 0.15903,0 1.87388,2.53376 7.67443,11.33929 13.0278,19.77683 22.02341,33.64062 22.01477,33.92857 -0.005,0.154 -14.53508,22.97633 -14.8683,23.35296 -0.0675,0.0763 -0.81119,-0.88801 -1.65268,-2.14285 z"
       id="path3386"
       inkscape:connector-curvature="0" />
    <path
       style="opacity:1;fill:#000000;fill-opacity:1;stroke-width:20;stroke-linecap:butt;stroke-miterlimit:4;stroke-dasharray:none"
       d="m 364.73836,331.01559 c -0.74395,-1.1076 -3.58071,-5.30847 -6.30393,-9.33525 -10.09313,-14.92461 -21.92888,-32.65311 -21.92888,-32.84679 0,-0.26288 5.4496,-9.31948 14.32411,-23.805 0.25573,-0.41741 0.51691,-0.75893 0.5804,-0.75893 0.36,0 29.68474,44.73538 29.67379,45.26786 -0.003,0.15882 -14.54835,23.00936 -14.86498,23.35311 -0.0703,0.0764 -0.73656,-0.76739 -1.48051,-1.875 z"
       id="path3388"
       inkscape:connector-curvature="0" />
    <path
       style="opacity:1;fill:#000000;fill-opacity:1;stroke-width:20;stroke-linecap:butt;stroke-miterlimit:4;stroke-dasharray:none"
       d="m 364.48373,330.65419 c -8.69082,-12.72981 -27.97818,-41.57295 -27.97818,-41.83977 0,-0.40578 14.6764,-24.5448 14.92311,-24.5448 0.3587,0 29.65648,44.72376 29.65422,45.26786 -7.1e-4,0.16231 -14.55139,23.03472 -14.85382,23.34885 -0.0713,0.074 -0.85665,-0.93045 -1.74533,-2.23214 z"
       id="path3390"
       inkscape:connector-curvature="0" />
    <path
       style="opacity:1;fill:#000000;fill-opacity:1;stroke-width:20;stroke-linecap:butt;stroke-miterlimit:4;stroke-dasharray:none"
       d="m 360.13483,324.24165 c -9.87881,-14.59454 -23.62928,-35.19879 -23.62928,-35.40704 0,-0.22684 5.03982,-8.66941 10.48772,-17.56874 4.60945,-7.52968 4.27078,-6.99625 4.44169,-6.99625 0.26666,0 26.12197,39.30451 29.36708,44.64299 l 0.38,0.62513 -2.33196,3.66058 c -5.39046,8.46167 -12.28202,19.2198 -12.50784,19.52547 -0.22067,0.2987 -0.7953,-0.48651 -6.20741,-8.48214 z"
       id="path3392"
       inkscape:connector-curvature="0" />
    <path
       style="opacity:1;fill:#000000;fill-opacity:1;stroke-width:20;stroke-linecap:butt;stroke-miterlimit:4;stroke-dasharray:none"
       d="m 362.95987,328.42141 c -4.23623,-6.23027 -13.65553,-20.2265 -20.73952,-30.81703 -5.2662,-7.87295 -5.81186,-8.7565 -5.62435,-9.10715 0.36987,-0.69171 9.82645,-16.34386 12.29105,-20.34368 1.31626,-2.13616 2.45982,-3.88393 2.54125,-3.88393 0.28558,0 25.91616,38.95424 29.3778,44.64941 l 0.38387,0.63155 -4.37984,6.86845 c -6.20299,9.7275 -10.62382,16.60059 -10.67764,16.60059 -0.0254,0 -1.45303,-2.06919 -3.17262,-4.59821 z"
       id="path3394"
       inkscape:connector-curvature="0" />
    <path
       style="opacity:1;fill:#000000;fill-opacity:1;stroke-width:20;stroke-linecap:butt;stroke-miterlimit:4;stroke-dasharray:none"
       d="m 363.13191,328.68927 c -4.48539,-6.59624 -12.18333,-18.02783 -19.84432,-29.4692 -6.29455,-9.40065 -6.88973,-10.35267 -6.69825,-10.71428 0.63479,-1.19885 12.89205,-21.4325 14.27492,-23.56431 0.23813,-0.36709 0.49715,-0.66843 0.57561,-0.66965 0.23562,-0.004 19.28849,28.86325 27.03264,40.95701 1.50131,2.34454 2.67669,4.35347 2.61196,4.46429 -0.8076,1.38266 -14.87785,23.32649 -14.9568,23.32649 -0.0281,0 -1.37622,-1.94866 -2.99576,-4.33035 z"
       id="path3396"
       inkscape:connector-curvature="0" />
    <path
       style="opacity:1;fill:#000000;fill-opacity:1;stroke-width:20;stroke-linecap:butt;stroke-miterlimit:4;stroke-dasharray:none"
       d="m 363.31533,328.96563 c -4.54027,-6.66422 -10.85121,-16.03291 -19.13784,-28.41043 l -7.80683,-11.66084 0.57745,-1.01773 c 1.2458,-2.19564 12.65911,-21.00836 13.91431,-22.93515 0.23914,-0.36709 0.49453,-0.66843 0.56755,-0.66965 0.21579,-0.004 12.30125,18.22563 23.26175,35.08708 5.29167,8.14063 6.51675,10.1217 6.39172,10.33601 -0.77642,1.33084 -14.53449,22.83982 -14.78215,23.11 -0.16873,0.18406 -0.78288,-0.6056 -2.98596,-3.83929 z"
       id="path3398"
       inkscape:connector-curvature="0" />
    <path
       style="opacity:1;fill:#000000;fill-opacity:1;stroke-width:20;stroke-linecap:butt;stroke-miterlimit:4;stroke-dasharray:none"
       d="m 363.66912,329.49284 c -3.78556,-5.53469 -9.90574,-14.61421 -18.95482,-28.1202 l -8.34193,-12.45056 0.28376,-0.54874 c 0.60876,-1.1772 13.15272,-21.87842 14.25331,-23.52214 0.21328,-0.31852 0.45189,-0.57969 0.53026,-0.58036 0.2452,-0.002 20.30274,30.38327 27.38738,41.48942 1.96755,3.08439 2.34378,3.78069 2.19402,4.06052 -0.43506,0.81291 -14.79859,23.19884 -14.88512,23.19884 -0.0301,0 -1.14014,-1.58705 -2.46686,-3.52678 z"
       id="path3400"
       inkscape:connector-curvature="0" />
    <path
       style="opacity:1;fill:#000000;fill-opacity:1;stroke-width:20;stroke-linecap:butt;stroke-miterlimit:4;stroke-dasharray:none"
       d="m 365.73672,332.53124 c -0.77087,-1.04627 -12.1043,-17.83868 -20.53737,-30.4296 l -8.82714,-13.17926 0.2823,-0.5459 c 0.39112,-0.75635 7.97233,-13.33904 11.5982,-19.24978 1.6448,-2.68128 3.07987,-4.84529 3.18904,-4.8089 0.44279,0.1476 28.07083,42.11019 29.55315,44.88653 0.18079,0.33861 -0.20707,1.02609 -3.47571,6.16072 -6.70472,10.53229 -10.99462,17.20523 -11.20801,17.43405 -0.16745,0.17955 -0.28532,0.12459 -0.57446,-0.26786 z"
       id="path3402"
       inkscape:connector-curvature="0" />
    <path
       style="opacity:1;fill:#000000;fill-opacity:1;stroke-width:20;stroke-linecap:butt;stroke-miterlimit:4;stroke-dasharray:none"
       d="m 364.20764,330.30661 c -3.37503,-4.91274 -9.32786,-13.74341 -18.66295,-27.68537 -8.42645,-12.5849 -9.15712,-13.73499 -8.96255,-14.10714 1.35821,-2.59776 14.57721,-24.24448 14.80538,-24.24448 0.19125,0 2.69546,3.6868 9.40016,13.83929 9.16908,13.88414 18.75078,28.60749 19.94374,30.64576 l 0.48246,0.82434 -4.25707,6.67566 c -8.00224,12.54859 -10.42787,16.31859 -10.64957,16.55194 -0.17942,0.18886 -0.58027,-0.28843 -2.0996,-2.5 z"
       id="path3404"
       inkscape:connector-curvature="0" />
    <path
       style="opacity:1;fill:#000000;fill-opacity:1;stroke-width:20;stroke-linecap:butt;stroke-miterlimit:4;stroke-dasharray:none"
       d="m 365.69666,332.47878 c -0.89694,-1.21317 -10.46149,-15.38 -19.62052,-29.06154 l -9.71571,-14.5131 0.66857,-1.20119 c 2.01408,-3.6186 14.07172,-23.3083 14.32539,-23.39286 0.2192,-0.0731 2.61051,3.42544 9.859,14.42382 9.89332,15.01147 18.35973,28.03231 19.51534,30.01345 l 0.47658,0.81702 -1.84887,2.93298 c -3.81595,6.05351 -12.82591,20.08445 -13.03674,20.30174 -0.17557,0.18095 -0.29956,0.1172 -0.62304,-0.32032 z"
       id="path3406"
       inkscape:connector-curvature="0" />
    <path
       style="opacity:1;fill:#000000;fill-opacity:1;stroke-width:20;stroke-linecap:butt;stroke-miterlimit:4;stroke-dasharray:none"
       d="m 364.92085,331.38254 c -2.90216,-4.18503 -25.56605,-37.8856 -27.69498,-41.18167 l -0.84025,-1.30089 0.3686,-0.72251 c 0.46218,-0.90595 7.75138,-12.99511 11.56205,-19.1757 1.57442,-2.55358 2.96957,-4.64286 3.10033,-4.64286 0.38702,0 24.29594,36.16353 28.87986,43.68233 l 0.93855,1.53947 -4.59883,7.21053 c -7.28213,11.41767 -10.08498,15.76395 -10.33099,16.01987 -0.1882,0.19578 -0.43335,-0.0572 -1.38434,-1.42857 z"
       id="path3408"
       inkscape:connector-curvature="0" />
    <path
       style="opacity:1;fill:#000000;fill-opacity:1;stroke-width:20;stroke-linecap:butt;stroke-miterlimit:4;stroke-dasharray:none"
       d="m 365.64669,333.59981 c -2.45085,-3.53206 -28.25006,-41.79182 -29.84694,-44.27282 -0.38885,-0.60413 3.36334,-6.14783 7.70352,-13.36543 7.83777,-13.03396 7.89868,-12.52765 8.15247,-12.44952 0.42795,0.13174 27.01892,39.83011 29.37407,45.24958 l 1.11512,0.74378 -4.62263,7.55979 c -1.55964,2.55062 -10.95333,15.85312 -11.10988,15.94987 -0.0848,0.0524 -0.13473,1.49412 -0.76573,0.58475 z"
       id="path3410"
       inkscape:connector-curvature="0"
       sodipodi:nodetypes="ssscscscs" />
    <path
       style="opacity:1;fill:#000000;fill-opacity:1;stroke-width:20;stroke-linecap:butt;stroke-miterlimit:4;stroke-dasharray:none"
       d=""
       id="path3739"
       inkscape:connector-curvature="0" />
    <path
       style="fill:none;fill-rule:evenodd;stroke:#000000;stroke-width:1px;stroke-linecap:butt;stroke-linejoin:miter;stroke-opacity:1"
       d="m 401.2831,336.22719 -15.65737,25.75889 z"
       id="path3798"
       inkscape:connector-curvature="0"
       sodipodi:nodetypes="ccc" />
    <path
       style="fill:none;fill-rule:evenodd;stroke:#000000;stroke-width:1.00225997px;stroke-linecap:butt;stroke-linejoin:miter;stroke-opacity:1"
       d="M 435.63169,437.8191 385.63066,361.45882 Z"
       id="path3800"
       inkscape:connector-curvature="0"
       sodipodi:nodetypes="ccc" />
    <path
       style="fill:none;fill-rule:evenodd;stroke:#000000;stroke-width:0.99879491px;stroke-linecap:butt;stroke-linejoin:miter;stroke-opacity:1"
       d="m 401.28721,336.75887 66.07762,100.6529 z"
       id="path3802"
       inkscape:connector-curvature="0"
       sodipodi:nodetypes="ccc" />
    <path
       style="fill:none;fill-rule:evenodd;stroke:#000000;stroke-width:1.17389333px;stroke-linecap:butt;stroke-linejoin:miter;stroke-opacity:1"
       d="m 467.04508,437.16145 -31.82937,0.34791 z"
       id="path3804"
       inkscape:connector-curvature="0"
       sodipodi:nodetypes="ccc" />
    <path
       style="opacity:1;fill:#000000;fill-opacity:1;stroke-width:20;stroke-linecap:butt;stroke-miterlimit:4;stroke-dasharray:none"
       id="path3857"
       d="m 435.24984,438.04439 c 0.007,1.3e-4 0.004,3.3e-4 0.0108,-5.8e-4 0,0 -0.0464,0.0343 -0.0464,0.0343 l 0,0 c -0.007,3.5e-4 -0.004,2.3e-4 -0.0113,3.6e-4 0,0 0.0469,-0.0341 0.0469,-0.0341 z"
       inkscape:connector-curvature="0" />
    <rect
       style="opacity:1;fill:#000000;fill-opacity:1;stroke-width:20;stroke-linecap:butt;stroke-miterlimit:4;stroke-dasharray:none"
       id="rect3863"
       width="0.7421875"
       height="0.609375"
       x="467.03906"
       y="437.13956" />
    <path
       style="fill:#000000;fill-opacity:1;stroke-width:20;stroke-miterlimit:4;stroke-dasharray:none;stroke-linecap:butt;opacity:0"
       d="m 426.46356,422.35779 c -29.15215,-44.52725 -39.30348,-60.15674 -39.30348,-60.51359 0,-0.34547 2.76019,-5.21159 6.41111,-11.30257 l 2.26648,-3.78125 5.4616,0 5.46161,0 8.36445,12.65625 c 9.0329,13.66767 12.98222,19.6701 35.50889,53.96875 8.10508,12.34063 14.7287,22.44947 14.71917,22.4641 -0.01,0.0146 -0.54912,0.11318 -1.19908,0.21899 -1.67386,0.27251 -6.96596,0.41627 -18.44755,0.50113 l -9.89083,0.0731 -9.35237,-14.2849 z"
       id="path3865"
       inkscape:connector-curvature="0" />
    <path
       style="opacity:1;fill:#000000;fill-opacity:1;stroke-width:20;stroke-linecap:butt;stroke-miterlimit:4;stroke-dasharray:none"
       d="m 436.56633,436.79247 c 0.53281,-0.0234 1.40469,-0.0234 1.9375,0 0.53281,0.0234 0.0969,0.0426 -0.96875,0.0426 -1.06562,0 -1.50156,-0.0192 -0.96875,-0.0426 z"
       id="path3871"
       inkscape:connector-curvature="0" />
    <path
       style="opacity:1;fill:#000000;fill-opacity:1;stroke-width:20;stroke-linecap:butt;stroke-miterlimit:4;stroke-dasharray:none"
       d="m 437.37883,436.8026 c 0.0859,-0.0347 0.22656,-0.0347 0.3125,0 0.0859,0.0347 0.0156,0.063 -0.15625,0.063 -0.17187,0 -0.24219,-0.0284 -0.15625,-0.063 z"
       id="path3873"
       inkscape:connector-curvature="0" />
    <path
       style="opacity:1;fill:#000000;fill-opacity:1;stroke-width:20;stroke-linecap:butt;stroke-miterlimit:4;stroke-dasharray:none"
       d=""
       id="path3875"
       inkscape:connector-curvature="0" />
    <path
       style="fill:none;fill-rule:evenodd;stroke:#000000;stroke-width:0.70343363px;stroke-linecap:butt;stroke-linejoin:miter;stroke-opacity:1"
       d="M 429.57761,266.71274 325.2014,437.63039 Z"
       id="path3340-6-7"
       inkscape:connector-curvature="0"
       inkscape:transform-center-x="-28.596223"
       inkscape:transform-center-y="66.389501" />
    <path
       style="fill:none;fill-rule:evenodd;stroke:#000000;stroke-width:0.61450273px;stroke-linecap:butt;stroke-linejoin:miter;stroke-opacity:1"
       d="m 318.60917,437.49515 6.86754,0.009 z"
       id="path4902"
       inkscape:connector-curvature="0" />
    <path
       style="fill:none;fill-rule:evenodd;stroke:#000000;stroke-width:0.59736806px;stroke-linecap:butt;stroke-linejoin:miter;stroke-opacity:1"
       d="m 422.35673,266.84198 7.49267,-0.0221 z"
       id="path4906"
       inkscape:connector-curvature="0" />
    <path
       style="opacity:0;fill:#000000;fill-opacity:1;stroke-width:20;stroke-linecap:butt;stroke-miterlimit:4;stroke-dasharray:none"
       id="path4934"
       d="m 388.12146,361.54647 c 0.2506,0.20753 0.51243,0.39952 0.74459,0.62833 0.2467,0.22194 0.42261,0.49511 0.59218,0.77639 0.15645,0.23795 0.29033,0.48931 0.42851,0.73803 0,0 -1.6057,0.92143 -1.6057,0.92143 l 0,0 c -0.13172,-0.24861 -0.25828,-0.50067 -0.41598,-0.73424 -0.16512,-0.26599 -0.34051,-0.52232 -0.57558,-0.73293 -0.22643,-0.21905 -0.47343,-0.41531 -0.73152,-0.59592 0,0 1.5635,-1.00109 1.5635,-1.00109 z"
       inkscape:connector-curvature="0" />
    <path
       style="opacity:0;fill:#000000;fill-opacity:1;stroke:#000000;stroke-width:5;stroke-linecap:butt;stroke-miterlimit:4;stroke-dasharray:none"
       d="m 411.29046,399.46936 c -13.42971,-20.53069 -24.45471,-37.46585 -24.5,-37.63367 -0.11027,-0.40854 14.10273,-23.83693 14.4019,-23.73977 0.2533,0.0823 64.71736,98.18201 64.59171,98.294 -0.0418,0.0372 -6.82597,0.14427 -15.07597,0.23785 l -15,0.17013 -24.41764,-37.32854 z"
       id="path5001"
       inkscape:connector-curvature="0" />
    <path
       style="opacity:0;fill:#000000;fill-opacity:1;stroke:#000000;stroke-width:5;stroke-linecap:butt;stroke-miterlimit:4;stroke-dasharray:none"
       d="m 411.29046,399.46936 c -13.42971,-20.53069 -24.45471,-37.46585 -24.5,-37.63367 -0.11027,-0.40854 14.10273,-23.83693 14.4019,-23.73977 0.2533,0.0823 64.71736,98.18201 64.59171,98.294 -0.0418,0.0372 -6.82597,0.14427 -15.07597,0.23785 l -15,0.17013 -24.41764,-37.32854 z"
       id="path5003"
       inkscape:connector-curvature="0" />
    <path
       style="opacity:0;fill:#000000;fill-opacity:1;stroke:#000000;stroke-width:5;stroke-linecap:butt;stroke-miterlimit:4;stroke-dasharray:none"
       d="m 411.29046,399.46936 c -13.42971,-20.53069 -24.45471,-37.46585 -24.5,-37.63367 -0.11027,-0.40854 14.10273,-23.83693 14.4019,-23.73977 0.2533,0.0823 64.71736,98.18201 64.59171,98.294 -0.0418,0.0372 -6.82597,0.14427 -15.07597,0.23785 l -15,0.17013 -24.41764,-37.32854 z"
       id="path5005"
       inkscape:connector-curvature="0" />
    <path
       style="opacity:0;fill:#000000;fill-opacity:1;stroke:#000000;stroke-width:5;stroke-linecap:butt;stroke-miterlimit:4;stroke-dasharray:none"
       d="m 411.29046,399.46936 c -13.42971,-20.53069 -24.45471,-37.46585 -24.5,-37.63367 -0.11027,-0.40854 14.10273,-23.83693 14.4019,-23.73977 0.2533,0.0823 64.71736,98.18201 64.59171,98.294 -0.0418,0.0372 -6.82597,0.14427 -15.07597,0.23785 l -15,0.17013 -24.41764,-37.32854 z"
       id="path5007"
       inkscape:connector-curvature="0" />
    <path
       style="opacity:0;fill:#000000;fill-opacity:1;stroke:#000000;stroke-width:5;stroke-linecap:butt;stroke-miterlimit:4;stroke-dasharray:none"
       d="m 411.29046,399.46936 c -13.42971,-20.53069 -24.45471,-37.46585 -24.5,-37.63367 -0.11027,-0.40854 14.10273,-23.83693 14.4019,-23.73977 0.2533,0.0823 64.71736,98.18201 64.59171,98.294 -0.0418,0.0372 -6.82597,0.14427 -15.07597,0.23785 l -15,0.17013 -24.41764,-37.32854 z"
       id="path5009"
       inkscape:connector-curvature="0" />
    <path
       style="opacity:0;fill:#000000;fill-opacity:1;stroke:#000000;stroke-width:10;stroke-linecap:butt;stroke-miterlimit:4;stroke-dasharray:none;stroke-opacity:1"
       d=""
       id="path5632"
       inkscape:connector-curvature="0" />
    <path
       style="opacity:0;fill:#000000;fill-opacity:1;stroke:#000000;stroke-width:10;stroke-linecap:butt;stroke-miterlimit:4;stroke-dasharray:none;stroke-opacity:1"
       d="m 319.74101,436.55501 c 0.0917,-0.23737 23.34167,-38.37231 51.66667,-84.74431 l 51.5,-84.31274 2.66666,-0.006 c 1.46667,-0.003 2.59167,0.18759 2.5,0.42382 -0.0917,0.23622 -23.34166,38.37237 -51.66666,84.747 l -51.5,84.3175 -2.66667,0.003 c -1.46666,0.002 -2.59166,-0.19121 -2.5,-0.42858 z"
       id="path5642"
       inkscape:connector-curvature="0" />
    <path
       style="opacity:0;fill:#000000;fill-opacity:1;stroke:#000000;stroke-width:10;stroke-linecap:butt;stroke-miterlimit:4;stroke-dasharray:none;stroke-opacity:1"
       d="m 319.74101,436.55501 c 0.0917,-0.23737 23.34167,-38.37231 51.66667,-84.74431 l 51.5,-84.31274 2.66666,-0.006 c 1.46667,-0.003 2.59167,0.18759 2.5,0.42382 -0.0917,0.23622 -23.34166,38.37237 -51.66666,84.747 l -51.5,84.3175 -2.66667,0.003 c -1.46666,0.002 -2.59166,-0.19121 -2.5,-0.42858 z"
       id="path5644"
       inkscape:connector-curvature="0" />
    <path
       style="opacity:0;fill:#000000;fill-opacity:1;stroke:#000000;stroke-width:10;stroke-linecap:butt;stroke-miterlimit:4;stroke-dasharray:none;stroke-opacity:1"
       d="m 319.74101,436.55501 c 0.0917,-0.23737 23.34167,-38.37231 51.66667,-84.74431 l 51.5,-84.31274 2.66666,-0.006 c 1.46667,-0.003 2.59167,0.18759 2.5,0.42382 -0.0917,0.23622 -23.34166,38.37237 -51.66666,84.747 l -51.5,84.3175 -2.66667,0.003 c -1.46666,0.002 -2.59166,-0.19121 -2.5,-0.42858 z"
       id="path5646"
       inkscape:connector-curvature="0" />
    <path
       style="opacity:0;fill:#000000;fill-opacity:1;stroke:#000000;stroke-width:10;stroke-linecap:butt;stroke-miterlimit:4;stroke-dasharray:none;stroke-opacity:1"
       d="m 319.74101,436.55501 c 0.0917,-0.23737 23.34167,-38.37231 51.66667,-84.74431 l 51.5,-84.31274 2.66666,-0.006 c 1.46667,-0.003 2.59167,0.18759 2.5,0.42382 -0.0917,0.23622 -23.34166,38.37237 -51.66666,84.747 l -51.5,84.3175 -2.66667,0.003 c -1.46666,0.002 -2.59166,-0.19121 -2.5,-0.42858 z"
       id="path5648"
       inkscape:connector-curvature="0" />
    <path
       style="opacity:0;fill:#000000;fill-opacity:1;stroke:#000000;stroke-width:10;stroke-linecap:butt;stroke-miterlimit:4;stroke-dasharray:none;stroke-opacity:1"
       d="m 319.74101,436.55501 c 0.0917,-0.23737 23.34167,-38.37231 51.66667,-84.74431 l 51.5,-84.31274 2.66666,-0.006 c 1.46667,-0.003 2.59167,0.18759 2.5,0.42382 -0.0917,0.23622 -23.34166,38.37237 -51.66666,84.747 l -51.5,84.3175 -2.66667,0.003 c -1.46666,0.002 -2.59166,-0.19121 -2.5,-0.42858 z"
       id="path5650"
       inkscape:connector-curvature="0" />
    <path
       style="opacity:0;fill:#000000;fill-opacity:1;stroke:#000000;stroke-width:10;stroke-linecap:butt;stroke-miterlimit:4;stroke-dasharray:none;stroke-opacity:1"
       d="m 319.74101,436.55501 c 0.0917,-0.23737 23.34167,-38.37231 51.66667,-84.74431 l 51.5,-84.31274 2.66666,-0.006 c 1.46667,-0.003 2.59167,0.18759 2.5,0.42382 -0.0917,0.23622 -23.34166,38.37237 -51.66666,84.747 l -51.5,84.3175 -2.66667,0.003 c -1.46666,0.002 -2.59166,-0.19121 -2.5,-0.42858 z"
       id="path5652"
       inkscape:connector-curvature="0" />
    <path
       style="opacity:0;fill:#000000;fill-opacity:1;stroke:#000000;stroke-width:10;stroke-linecap:butt;stroke-miterlimit:4;stroke-dasharray:none;stroke-opacity:1"
       d="m 319.74101,436.55501 c 0.0917,-0.23737 23.34167,-38.37231 51.66667,-84.74431 l 51.5,-84.31274 2.66666,-0.006 c 1.46667,-0.003 2.59167,0.18759 2.5,0.42382 -0.0917,0.23622 -23.34166,38.37237 -51.66666,84.747 l -51.5,84.3175 -2.66667,0.003 c -1.46666,0.002 -2.59166,-0.19121 -2.5,-0.42858 z"
       id="path5654"
       inkscape:connector-curvature="0" />
    <path
       style="opacity:0;fill:#000000;fill-opacity:1;stroke:#000000;stroke-width:10;stroke-linecap:butt;stroke-miterlimit:4;stroke-dasharray:none;stroke-opacity:1"
       d="m 319.74101,436.55501 c 0.0917,-0.23737 23.34167,-38.37231 51.66667,-84.74431 l 51.5,-84.31274 2.66666,-0.006 c 1.46667,-0.003 2.59167,0.18759 2.5,0.42382 -0.0917,0.23622 -23.34166,38.37237 -51.66666,84.747 l -51.5,84.3175 -2.66667,0.003 c -1.46666,0.002 -2.59166,-0.19121 -2.5,-0.42858 z"
       id="path5656"
       inkscape:connector-curvature="0" />
    <path
       style="opacity:0;fill:#000000;fill-opacity:1;stroke:#000000;stroke-width:10;stroke-linecap:butt;stroke-miterlimit:4;stroke-dasharray:none;stroke-opacity:1"
       d="m 319.74101,436.55501 c 0.0917,-0.23737 23.34167,-38.37231 51.66667,-84.74431 l 51.5,-84.31274 2.66666,-0.006 c 1.46667,-0.003 2.59167,0.18759 2.5,0.42382 -0.0917,0.23622 -23.34166,38.37237 -51.66666,84.747 l -51.5,84.3175 -2.66667,0.003 c -1.46666,0.002 -2.59166,-0.19121 -2.5,-0.42858 z"
       id="path5658"
       inkscape:connector-curvature="0" />
    <path
       style="opacity:0;fill:#000000;fill-opacity:1;stroke:#000000;stroke-width:10;stroke-linecap:butt;stroke-miterlimit:4;stroke-dasharray:none;stroke-opacity:1"
       d="m 319.74101,436.55501 c 0.0917,-0.23737 23.34167,-38.37231 51.66667,-84.74431 l 51.5,-84.31274 2.66666,-0.006 c 1.46667,-0.003 2.59167,0.18759 2.5,0.42382 -0.0917,0.23622 -23.34166,38.37237 -51.66666,84.747 l -51.5,84.3175 -2.66667,0.003 c -1.46666,0.002 -2.59166,-0.19121 -2.5,-0.42858 z"
       id="path5660"
       inkscape:connector-curvature="0" />
    <path
       style="opacity:0;fill:#000000;fill-opacity:1;stroke:#000000;stroke-width:10;stroke-linecap:butt;stroke-miterlimit:4;stroke-dasharray:none;stroke-opacity:1"
       d="m 319.74101,436.55501 c 0.0917,-0.23737 23.34167,-38.37231 51.66667,-84.74431 l 51.5,-84.31274 2.66666,-0.006 c 1.46667,-0.003 2.59167,0.18759 2.5,0.42382 -0.0917,0.23622 -23.34166,38.37237 -51.66666,84.747 l -51.5,84.3175 -2.66667,0.003 c -1.46666,0.002 -2.59166,-0.19121 -2.5,-0.42858 z"
       id="path5662"
       inkscape:connector-curvature="0" />
    <path
       style="opacity:0;fill:#000000;fill-opacity:1;stroke:#000000;stroke-width:10;stroke-linecap:butt;stroke-miterlimit:4;stroke-dasharray:none;stroke-opacity:1"
       d="m 319.74101,436.55501 c 0.0917,-0.23737 23.34167,-38.37231 51.66667,-84.74431 l 51.5,-84.31274 2.66666,-0.006 c 1.46667,-0.003 2.59167,0.18759 2.5,0.42382 -0.0917,0.23622 -23.34166,38.37237 -51.66666,84.747 l -51.5,84.3175 -2.66667,0.003 c -1.46666,0.002 -2.59166,-0.19121 -2.5,-0.42858 z"
       id="path5664"
       inkscape:connector-curvature="0" />
    <path
       style="opacity:0;fill:#000000;fill-opacity:1;stroke:#000000;stroke-width:10;stroke-linecap:butt;stroke-miterlimit:4;stroke-dasharray:none;stroke-opacity:1"
       d="m 319.74101,436.55501 c 0.0917,-0.23737 23.34167,-38.37231 51.66667,-84.74431 l 51.5,-84.31274 2.66666,-0.006 c 1.46667,-0.003 2.59167,0.18759 2.5,0.42382 -0.0917,0.23622 -23.34166,38.37237 -51.66666,84.747 l -51.5,84.3175 -2.66667,0.003 c -1.46666,0.002 -2.59166,-0.19121 -2.5,-0.42858 z"
       id="path5666"
       inkscape:connector-curvature="0" />
    <path
       style="opacity:0;fill:#000000;fill-opacity:1;stroke:#000000;stroke-width:10;stroke-linecap:butt;stroke-miterlimit:4;stroke-dasharray:none;stroke-opacity:1"
       d="m 319.74101,436.55501 c 0.0917,-0.23737 23.34167,-38.37231 51.66667,-84.74431 l 51.5,-84.31274 2.66666,-0.006 c 1.46667,-0.003 2.59167,0.18759 2.5,0.42382 -0.0917,0.23622 -23.34166,38.37237 -51.66666,84.747 l -51.5,84.3175 -2.66667,0.003 c -1.46666,0.002 -2.59166,-0.19121 -2.5,-0.42858 z"
       id="path5668"
       inkscape:connector-curvature="0" />
    <path
       style="opacity:0;fill:#000000;fill-opacity:1;stroke:#000000;stroke-width:10;stroke-linecap:butt;stroke-miterlimit:4;stroke-dasharray:none;stroke-opacity:1"
       d="m 319.74101,436.55501 c 0.0917,-0.23737 23.34167,-38.37231 51.66667,-84.74431 l 51.5,-84.31274 2.66666,-0.006 c 1.46667,-0.003 2.59167,0.18759 2.5,0.42382 -0.0917,0.23622 -23.34166,38.37237 -51.66666,84.747 l -51.5,84.3175 -2.66667,0.003 c -1.46666,0.002 -2.59166,-0.19121 -2.5,-0.42858 z"
       id="path5670"
       inkscape:connector-curvature="0" />
    <path
       style="opacity:0;fill:#000000;fill-opacity:1;stroke:#000000;stroke-width:10;stroke-linecap:butt;stroke-miterlimit:4;stroke-dasharray:none;stroke-opacity:1"
       d="m 319.74101,436.55501 c 0.0917,-0.23737 23.34167,-38.37231 51.66667,-84.74431 l 51.5,-84.31274 2.66666,-0.006 c 1.46667,-0.003 2.59167,0.18759 2.5,0.42382 -0.0917,0.23622 -23.34166,38.37237 -51.66666,84.747 l -51.5,84.3175 -2.66667,0.003 c -1.46666,0.002 -2.59166,-0.19121 -2.5,-0.42858 z"
       id="path5672"
       inkscape:connector-curvature="0" />
    <path
       style="opacity:0;fill:#000000;fill-opacity:1;stroke:#000000;stroke-width:10;stroke-linecap:butt;stroke-miterlimit:4;stroke-dasharray:none;stroke-opacity:1"
       d="m 319.74101,436.55501 c 0.0917,-0.23737 23.34167,-38.37231 51.66667,-84.74431 l 51.5,-84.31274 2.66666,-0.006 c 1.46667,-0.003 2.59167,0.18759 2.5,0.42382 -0.0917,0.23622 -23.34166,38.37237 -51.66666,84.747 l -51.5,84.3175 -2.66667,0.003 c -1.46666,0.002 -2.59166,-0.19121 -2.5,-0.42858 z"
       id="path5674"
       inkscape:connector-curvature="0" />
    <path
       style="opacity:0;fill:#000000;fill-opacity:1;stroke:#000000;stroke-width:10;stroke-linecap:butt;stroke-miterlimit:4;stroke-dasharray:none;stroke-opacity:1"
       d="m 319.74101,436.55501 c 0.0917,-0.23737 23.34167,-38.37231 51.66667,-84.74431 l 51.5,-84.31274 2.66666,-0.006 c 1.46667,-0.003 2.59167,0.18759 2.5,0.42382 -0.0917,0.23622 -23.34166,38.37237 -51.66666,84.747 l -51.5,84.3175 -2.66667,0.003 c -1.46666,0.002 -2.59166,-0.19121 -2.5,-0.42858 z"
       id="path5676"
       inkscape:connector-curvature="0" />
    <path
       style="opacity:0;fill:#000000;fill-opacity:1;stroke:#000000;stroke-width:10;stroke-linecap:butt;stroke-miterlimit:4;stroke-dasharray:none;stroke-opacity:1"
       d="m 319.74101,436.55501 c 0.0917,-0.23737 23.34167,-38.37231 51.66667,-84.74431 l 51.5,-84.31274 2.66666,-0.006 c 1.46667,-0.003 2.59167,0.18759 2.5,0.42382 -0.0917,0.23622 -23.34166,38.37237 -51.66666,84.747 l -51.5,84.3175 -2.66667,0.003 c -1.46666,0.002 -2.59166,-0.19121 -2.5,-0.42858 z"
       id="path5678"
       inkscape:connector-curvature="0" />
    <path
       style="opacity:0;fill:#000000;fill-opacity:1;stroke:#000000;stroke-width:10;stroke-linecap:butt;stroke-miterlimit:4;stroke-dasharray:none;stroke-opacity:1"
       d="m 319.74101,436.55501 c 0.0917,-0.23737 23.34167,-38.37231 51.66667,-84.74431 l 51.5,-84.31274 2.66666,-0.006 c 1.46667,-0.003 2.59167,0.18759 2.5,0.42382 -0.0917,0.23622 -23.34166,38.37237 -51.66666,84.747 l -51.5,84.3175 -2.66667,0.003 c -1.46666,0.002 -2.59166,-0.19121 -2.5,-0.42858 z"
       id="path5680"
       inkscape:connector-curvature="0" />
    <path
       style="opacity:0;fill:#000000;fill-opacity:1;stroke:#000000;stroke-width:10;stroke-linecap:butt;stroke-miterlimit:4;stroke-dasharray:none;stroke-opacity:1"
       d="m 319.74101,436.55501 c 0.0917,-0.23737 23.34167,-38.37231 51.66667,-84.74431 l 51.5,-84.31274 2.66666,-0.006 c 1.46667,-0.003 2.59167,0.18759 2.5,0.42382 -0.0917,0.23622 -23.34166,38.37237 -51.66666,84.747 l -51.5,84.3175 -2.66667,0.003 c -1.46666,0.002 -2.59166,-0.19121 -2.5,-0.42858 z"
       id="path5682"
       inkscape:connector-curvature="0" />
    <path
       style="opacity:0;fill:#000000;fill-opacity:1;stroke:#000000;stroke-width:10;stroke-linecap:butt;stroke-miterlimit:4;stroke-dasharray:none;stroke-opacity:1"
       d="m 319.74101,436.55501 c 0.0917,-0.23737 23.34167,-38.37231 51.66667,-84.74431 l 51.5,-84.31274 2.66666,-0.006 c 1.46667,-0.003 2.59167,0.18759 2.5,0.42382 -0.0917,0.23622 -23.34166,38.37237 -51.66666,84.747 l -51.5,84.3175 -2.66667,0.003 c -1.46666,0.002 -2.59166,-0.19121 -2.5,-0.42858 z"
       id="path5684"
       inkscape:connector-curvature="0" />
    <path
       style="opacity:0;fill:#000000;fill-opacity:1;stroke:#000000;stroke-width:7.07106781;stroke-linecap:butt;stroke-miterlimit:4;stroke-dasharray:none;stroke-opacity:1"
       d="m 319.64297,436.40237 c 0.2911,-0.44584 23.55672,-38.51708 51.70138,-84.60277 28.14467,-46.08568 51.32194,-83.94841 51.50504,-84.13941 0.1831,-0.19099 1.5452,-0.40847 3.02688,-0.48329 2.17393,-0.10978 2.65691,-0.0428 2.50201,0.34725 -0.10558,0.26582 -23.41641,38.50797 -51.80185,84.98256 l -51.60988,84.49926 -2.92642,0.1035 -2.92642,0.10351 0.52926,-0.81061 z"
       id="path5686"
       inkscape:connector-curvature="0" />
    <path
       style="opacity:0;fill:#000000;fill-opacity:1;stroke:#000000;stroke-width:7.07106781;stroke-linecap:butt;stroke-miterlimit:4;stroke-dasharray:none;stroke-opacity:1"
       d="m 319.64297,436.40237 c 0.2911,-0.44584 23.55672,-38.51708 51.70138,-84.60277 28.14467,-46.08568 51.32194,-83.94841 51.50504,-84.13941 0.1831,-0.19099 1.5452,-0.40847 3.02688,-0.48329 2.17393,-0.10978 2.65691,-0.0428 2.50201,0.34725 -0.10558,0.26582 -23.41641,38.50797 -51.80185,84.98256 l -51.60988,84.49926 -2.92642,0.1035 -2.92642,0.10351 0.52926,-0.81061 z"
       id="path5688"
       inkscape:connector-curvature="0" />
    <use
       id="use5690"
       xlink:href="#path5688"
       x="0"
       y="0"
       width="100%"
       height="100%"
       transform="translate(13.433047,-26.561868)" />
    <use
       id="use5692"
       xlink:href="#path5688"
       x="0"
       y="0"
       width="100%"
       height="100%"
       transform="translate(0.04240285,-10.952683)" />
    <use
       id="use5694"
       xlink:href="#path5688"
       x="0"
       y="0"
       width="100%"
       height="100%"
       transform="translate(5.5835791,-19.322264)" />
    <use
       id="use5696"
       xlink:href="#path5688"
       x="0"
       y="0"
       width="100%"
       height="100%"
       transform="translate(-4.9733847,-7.4858384)" />
    <use
       id="use5698"
       xlink:href="#path5688"
       x="0"
       y="0"
       width="100%"
       height="100%"
       transform="translate(-4.299194,-9.708363)" />
    <use
       id="use5700"
       xlink:href="#path5688"
       x="0"
       y="0"
       width="100%"
       height="100%"
       transform="translate(-5.7632315,-7.8729147)" />
    <use
       id="use5702"
       xlink:href="#path5688"
       x="0"
       y="0"
       width="100%"
       height="100%"
       transform="translate(0.11073425,7.1440172)" />
    <use
       id="use5704"
       xlink:href="#path5688"
       x="0"
       y="0"
       width="100%"
       height="100%"
       transform="translate(-6.2314533,-6.8283616)" />
    <use
       id="use5706"
       xlink:href="#path5688"
       x="0"
       y="0"
       width="100%"
       height="100%"
       transform="translate(8.6683026,-12.857094)" />
    <use
       id="use5708"
       xlink:href="#path5688"
       x="0"
       y="0"
       width="100%"
       height="100%"
       transform="translate(3.7494538,-8.251213)" />
    <use
       id="use5710"
       xlink:href="#path5688"
       x="0"
       y="0"
       width="100%"
       height="100%"
       transform="translate(-0.88605604,-6.3979076)" />
    <use
       id="use5712"
       xlink:href="#path5688"
       x="0"
       y="0"
       width="100%"
       height="100%"
       transform="translate(13.562896,-5.3417307)" />
    <use
       id="use5714"
       xlink:href="#path5688"
       x="0"
       y="0"
       width="100%"
       height="100%"
       transform="translate(-8.2435861,-4.080771)" />
    <use
       id="use5716"
       xlink:href="#path5688"
       x="0"
       y="0"
       width="100%"
       height="100%"
       transform="translate(4.0668734,2.1937234)" />
    <use
       id="use5718"
       xlink:href="#path5688"
       x="0"
       y="0"
       width="100%"
       height="100%"
       transform="translate(5.3949483,-1.8467808)" />
    <use
       id="use5720"
       xlink:href="#path5688"
       x="0"
       y="0"
       width="100%"
       height="100%"
       transform="translate(6.5620672,-0.77694502)" />
    <use
       id="use5722"
       xlink:href="#path5688"
       x="0"
       y="0"
       width="100%"
       height="100%"
       transform="translate(7.1241072,-15.46272)" />
    <use
       id="use5724"
       xlink:href="#path5688"
       x="0"
       y="0"
       width="100%"
       height="100%"
       transform="translate(1.5369264,-9.8549823)" />
    <use
       id="use5726"
       xlink:href="#path5688"
       x="0"
       y="0"
       width="100%"
       height="100%"
       transform="translate(0.31379106,-4.8282731)" />
    <path
       style="opacity:0;fill:#000000;fill-opacity:1;stroke:#000000;stroke-width:7.07106781;stroke-linecap:butt;stroke-miterlimit:4;stroke-dasharray:none;stroke-opacity:1"
       d="m 411.27036,399.38535 c -13.45011,-20.53298 -24.45663,-37.4918 -24.45893,-37.68625 -0.008,-0.65535 14.07084,-23.51208 14.41226,-23.39845 0.35265,0.11736 64.62929,97.85315 64.45931,98.01354 -0.0534,0.0504 -6.81574,0.16183 -15.02748,0.24772 l -14.93042,0.15614 -24.45474,-37.3327 z"
       id="path5730"
       inkscape:connector-curvature="0" />
    <path
       style="opacity:0;fill:#000000;fill-opacity:1;stroke:#000000;stroke-width:7.07106781;stroke-linecap:butt;stroke-miterlimit:4;stroke-dasharray:none;stroke-opacity:1"
       d="m 411.27036,399.38535 c -13.45011,-20.53298 -24.45663,-37.4918 -24.45893,-37.68625 -0.008,-0.65535 14.07084,-23.51208 14.41226,-23.39845 0.35265,0.11736 64.62929,97.85315 64.45931,98.01354 -0.0534,0.0504 -6.81574,0.16183 -15.02748,0.24772 l -14.93042,0.15614 -24.45474,-37.3327 z"
       id="path5732"
       inkscape:connector-curvature="0" />
    <path
       style="opacity:0;fill:#000000;fill-opacity:1;stroke:#000000;stroke-width:7.07106781;stroke-linecap:butt;stroke-miterlimit:4;stroke-dasharray:none;stroke-opacity:1"
       d="m 411.27036,399.38535 c -13.45011,-20.53298 -24.45663,-37.4918 -24.45893,-37.68625 -0.008,-0.65535 14.07084,-23.51208 14.41226,-23.39845 0.35265,0.11736 64.62929,97.85315 64.45931,98.01354 -0.0534,0.0504 -6.81574,0.16183 -15.02748,0.24772 l -14.93042,0.15614 -24.45474,-37.3327 z"
       id="path5734"
       inkscape:connector-curvature="0" />
    <path
       style="opacity:0;fill:#000000;fill-opacity:1;stroke:#000000;stroke-width:7.07106781;stroke-linecap:butt;stroke-miterlimit:4;stroke-dasharray:none;stroke-opacity:1"
       d="m 411.27036,399.38535 c -13.45011,-20.53298 -24.45663,-37.4918 -24.45893,-37.68625 -0.008,-0.65535 14.07084,-23.51208 14.41226,-23.39845 0.35265,0.11736 64.62929,97.85315 64.45931,98.01354 -0.0534,0.0504 -6.81574,0.16183 -15.02748,0.24772 l -14.93042,0.15614 -24.45474,-37.3327 z"
       id="path5736"
       inkscape:connector-curvature="0" />
    <path
       style="opacity:0;fill:#000000;fill-opacity:1;stroke:#000000;stroke-width:14.14213562;stroke-linecap:butt;stroke-miterlimit:4;stroke-dasharray:none;stroke-opacity:1"
       d="m 411.61341,399.72061 c -13.2229,-20.25487 -24.13865,-37.2297 -24.25723,-37.72185 -0.28796,-1.19516 12.83086,-22.59689 13.85143,-22.59689 1.05366,0 63.90696,95.76258 63.39597,96.58939 -0.2168,0.35078 -6.81892,0.61948 -14.67136,0.59709 l -14.27718,-0.0407 -24.04163,-36.82704 z"
       id="path5738"
       inkscape:connector-curvature="0" />
  </g>
</svg>
